<svg width="443" height="110" viewBox="0 0 443 110" fill="none" xmlns="http://www.w3.org/2000/svg">
<path d="M48.0987 60.768C48.0987 55.9043 51.9884 52.0013 56.8355 52.0013H100.939C105.008 52.0013 108.299 48.6987 108.299 44.6156V10.0289L93.7577 23.2992C91.6034 25.2807 88.7909 26.3615 85.8586 26.3615H51.0907C32.121 26.3615 16.7417 41.7934 16.7417 60.8281C16.7417 79.8628 32.121 95.2947 51.0907 95.2947H99.682C101.836 95.2947 103.871 96.0753 105.487 97.3963L108.299 99.7381V95.2346C108.299 81.0036 96.8096 69.4147 82.5674 69.4147H56.8355C52.0482 69.5348 48.0987 65.5718 48.0987 60.768Z" fill="white"/>
<path d="M128.765 53.0221C130.859 48.8789 133.672 45.6364 137.262 43.4147C140.853 41.193 144.802 40.0521 149.231 40.0521C152.761 40.0521 155.933 40.7727 158.865 42.2738C161.797 43.775 164.071 45.7565 165.687 48.2184V23.3593H182.024V94.394H165.627V86.7081C164.071 89.2901 161.917 91.3316 159.045 92.8328C156.232 94.394 152.881 95.1146 149.111 95.1146C144.683 95.1146 140.733 93.9737 137.143 91.6919C133.552 89.4102 130.74 86.1677 128.645 81.9644C126.551 77.7612 125.534 72.8974 125.534 67.4332C125.653 62.0291 126.671 57.1653 128.765 53.0221ZM162.216 57.8859C159.942 55.5441 157.19 54.3431 153.958 54.3431C150.727 54.3431 147.914 55.484 145.7 57.8258C143.426 60.1676 142.289 63.4101 142.289 67.4933C142.289 71.5764 143.426 74.8189 145.7 77.2208C147.974 79.6226 150.727 80.8236 153.958 80.8236C157.19 80.8236 159.942 79.6226 162.216 77.2808C164.49 74.939 165.627 71.6965 165.627 67.5533C165.627 63.5302 164.49 60.2877 162.216 57.8859Z" fill="black"/>
<path d="M243.9 71.5164H206.858C207.097 74.8189 208.175 77.4009 210.09 79.1422C211.945 80.8836 214.278 81.7843 217.031 81.7843C221.1 81.7843 223.973 80.0429 225.529 76.6203H242.942C242.045 80.163 240.429 83.2854 238.095 86.1076C235.762 88.9298 232.829 91.1515 229.358 92.7127C225.828 94.334 221.938 95.1146 217.57 95.1146C212.363 95.1146 207.696 93.9737 203.627 91.752C199.557 89.5303 196.326 86.2878 194.052 82.1446C191.778 78.0014 190.581 73.1376 190.581 67.5533C190.581 61.969 191.718 57.1053 193.992 52.9621C196.266 48.8189 199.438 45.5764 203.507 43.3547C207.576 41.1329 212.304 39.9921 217.57 39.9921C222.716 39.9921 227.324 41.0729 231.333 43.2346C235.343 45.3962 238.514 48.5186 240.788 52.5417C243.062 56.5648 244.199 61.3085 244.199 66.6526C244.199 68.2739 244.079 69.8951 243.9 71.5164ZM227.444 62.3893C227.444 59.5672 226.486 57.3454 224.571 55.6641C222.656 53.9828 220.263 53.1422 217.39 53.1422C214.637 53.1422 212.304 53.9228 210.449 55.5441C208.593 57.1653 207.397 59.4471 206.978 62.3893H227.444Z" fill="black"/>
<path d="M252.697 53.0221C254.791 48.8789 257.604 45.6364 261.194 43.4147C264.785 41.193 268.734 40.0521 273.162 40.0521C276.932 40.0521 280.224 40.8327 283.096 42.3339C285.909 43.8951 288.123 45.8766 289.679 48.3986V40.8327H306.015V94.394H289.679V86.8282C288.063 89.3501 285.849 91.3317 283.036 92.8929C280.224 94.4541 276.873 95.1746 273.103 95.1746C268.734 95.1746 264.785 94.0337 261.254 91.752C257.663 89.4702 254.851 86.2277 252.756 82.0245C250.662 77.8212 249.645 72.9575 249.645 67.4933C249.585 62.0291 250.602 57.1653 252.697 53.0221ZM286.148 57.8859C283.874 55.5441 281.121 54.3431 277.89 54.3431C274.658 54.3431 271.846 55.484 269.632 57.8258C267.358 60.1676 266.221 63.4101 266.221 67.4933C266.221 71.5764 267.358 74.8189 269.632 77.2208C271.906 79.6226 274.658 80.8236 277.89 80.8236C281.121 80.8236 283.874 79.6226 286.148 77.2808C288.422 74.939 289.559 71.6965 289.559 67.5533C289.559 63.5302 288.422 60.2877 286.148 57.8859Z" fill="black"/>
<path d="M327.08 92.7728C323.429 91.1515 320.557 88.9898 318.462 86.1677C316.368 83.3455 315.171 80.2831 314.932 76.8004H331.089C331.268 78.6619 332.166 80.163 333.662 81.3039C335.218 82.4448 337.073 83.0453 339.287 83.0453C341.322 83.0453 342.938 82.6249 344.015 81.8443C345.152 81.0637 345.69 79.9829 345.69 78.7219C345.69 77.1607 344.912 76.0198 343.297 75.2993C341.681 74.5787 339.108 73.7381 335.517 72.8374C331.687 71.9367 328.516 70.976 325.943 70.0152C323.369 68.9944 321.215 67.4332 319.36 65.3316C317.505 63.1699 316.607 60.2877 316.607 56.6249C316.607 53.5625 317.445 50.7404 319.121 48.2184C320.796 45.6965 323.31 43.7149 326.601 42.2138C329.892 40.7126 333.782 39.9921 338.33 39.9921C345.032 39.9921 350.298 41.6734 354.188 44.9759C358.018 48.2785 360.292 52.7219 360.83 58.2461H345.75C345.511 56.3847 344.673 54.9436 343.297 53.8027C341.92 52.7219 340.125 52.1815 337.911 52.1815C335.996 52.1815 334.5 52.5417 333.483 53.2623C332.465 53.9829 331.927 55.0036 331.927 56.2646C331.927 57.8258 332.765 58.9667 334.38 59.7473C335.996 60.5279 338.569 61.3085 341.98 62.0291C345.93 63.0498 349.161 64.0706 351.674 65.0314C354.188 66.0522 356.342 67.6134 358.257 69.8351C360.112 72.0568 361.129 74.9991 361.189 78.7219C361.189 81.8443 360.292 84.6665 358.556 87.1284C356.821 89.5903 354.307 91.5118 351.016 92.9529C347.725 94.334 343.895 95.0545 339.586 95.0545C334.859 95.1746 330.73 94.334 327.08 92.7728Z" fill="black"/>
<path d="M421.27 71.5164H384.228C384.468 74.8189 385.545 77.4009 387.46 79.1422C389.315 80.8836 391.649 81.7843 394.401 81.7843C398.47 81.7843 401.343 80.0429 402.899 76.6203H420.313C419.415 80.163 417.799 83.2854 415.465 86.1076C413.132 88.9298 410.199 91.1515 406.729 92.7127C403.198 94.334 399.308 95.1146 394.94 95.1146C389.734 95.1146 385.066 93.9737 380.997 91.752C376.928 89.5303 373.696 86.2878 371.422 82.1446C369.148 78.0014 367.951 73.1376 367.951 67.5533C367.951 61.969 369.088 57.1053 371.362 52.9621C373.636 48.8189 376.808 45.5764 380.877 43.3547C384.946 41.1329 389.674 39.9921 394.94 39.9921C400.086 39.9921 404.694 41.0729 408.703 43.2346C412.713 45.3962 415.884 48.5186 418.158 52.5417C420.432 56.5648 421.569 61.3085 421.569 66.6526C421.509 68.2739 421.45 69.8951 421.27 71.5164ZM404.814 62.3893C404.814 59.5672 403.856 57.3454 401.941 55.6641C400.026 53.9828 397.633 53.1422 394.76 53.1422C392.008 53.1422 389.674 53.9228 387.819 55.5441C385.964 57.1653 384.767 59.4471 384.348 62.3893H404.814Z" fill="black"/>
</svg>
