<svg id="Group_47984" data-name="Group 47984" xmlns="http://www.w3.org/2000/svg" xmlns:xlink="http://www.w3.org/1999/xlink" width="183.903" height="65.344" viewBox="0 0 183.903 65.344">
  <defs>
    <clipPath id="clip-path">
      <rect id="Rectangle_18208" data-name="Rectangle 18208" width="183.903" height="65.344" fill="none"/>
    </clipPath>
  </defs>
  <g id="Group_47941" data-name="Group 47941" clip-path="url(#clip-path)">
    <path id="Path_29267" data-name="Path 29267" d="M25.742,36.186,22.573,42.06a12.68,12.68,0,0,0-8.119-2.9c-3.3,0-5.28.99-5.28,3.3,0,2.244,1.584,2.9,6.535,4.092C23.1,48.331,26.6,51.5,26.6,56.515c0,6.4-5.347,10.626-13.927,10.626C7.656,67.142,2.9,65.623,0,63.116l3.3-5.941a14.63,14.63,0,0,0,9.439,3.367c3.564,0,5.808-1.122,5.808-3.564,0-2.244-1.584-3.235-6.4-4.357C4.555,50.839,1.254,48.2,1.254,42.984c0-6.468,5.016-10.428,13.2-10.428a17.891,17.891,0,0,1,11.287,3.63" transform="translate(0 -16.319)" fill="#FFF"/>
    <path id="Path_29268" data-name="Path 29268" d="M67.868,20.2c2.112-2.31,4.95-3.96,9.57-3.96,8.119,0,12.607,5.742,12.607,14.455V50.163H82.058V31.154c0-4.422-2.574-7.458-6.666-7.458-3.5,0-5.874,2.178-7.524,4.686V50.163H59.947V0h7.921Z" transform="translate(-30.049)" fill="#FFF"/>
    <path id="Path_29269" data-name="Path 29269" d="M156.2,49.518v2.773h-23.5c.2,5.28,3.366,8.184,8.911,8.184a9.908,9.908,0,0,0,8.25-3.828l5.479,4.488c-3.3,3.961-7.656,6.006-13.8,6.006-10.3,0-16.9-7.26-16.9-17.227,0-10.033,6.733-17.359,16.3-17.359,10.231,0,15.246,7.656,15.246,16.962m-23.5-2.9h15.709c-.2-4.555-2.838-7.723-7.59-7.723a7.742,7.742,0,0,0-8.119,7.723" transform="translate(-62.484 -16.319)" fill="#FFF"/>
    <path id="Path_29270" data-name="Path 29270" d="M227.527,49.849c0,9.966-6.138,17.293-15.115,17.293-4.884,0-8.053-1.848-9.834-3.961V81.663h-7.921V33.216h7.128l.33,3.895c1.848-2.509,5.28-4.555,10.3-4.555,8.976,0,15.115,7.26,15.115,17.293M202.579,44.5V55.2c1.716,2.838,4.158,4.951,8.118,4.951,5.149,0,8.845-4.026,8.845-10.3s-3.7-10.3-8.845-10.3c-3.96,0-6.4,2.112-8.118,4.95" transform="translate(-97.573 -16.319)" fill="#FFF"/>
    <path id="Path_29271" data-name="Path 29271" d="M284.07,40.477h-.66c-4.026,0-6.6,2.112-8.713,5.016V66.482h-7.921V33.216h7.128l.4,4.423a11.316,11.316,0,0,1,9.769-5.083Z" transform="translate(-133.723 -16.319)" fill="#FFF"/>
    <path id="Path_29272" data-name="Path 29272" d="M329.979,33.123a17.116,17.116,0,0,0-10.894,1.32l6.851,2.982Z" transform="translate(-159.942 -16.422)" fill="#e35700"/>
    <path id="Path_29273" data-name="Path 29273" d="M343.946,38.588l-2.825,4.539a11.742,11.742,0,0,1-.855,19.84c-.117.059-.233.119-.351.172l-.6-2.059-2.227,3.154-.039.01-2.136,3.027,4.249,1.935.045-.014,2.612,1.19c-.18-.761-.326-1.372-.467-1.968.08-.037.156-.078.235-.117a17.1,17.1,0,0,0,2.359-29.709" transform="translate(-167.876 -19.342)" fill="#e35700"/>
    <path id="Path_29274" data-name="Path 29274" d="M299.672,52.092h0c0,.022,0,.044,0,.066-.027.376-.045.754-.047,1.136,0,.027,0,.055,0,.082,0,.01,0,.021,0,.032,0,.346.013.688.034,1.028.008.143.021.286.032.428q.029.341.072.679c.017.135.031.27.051.4.051.344.113.684.185,1.021.014.065.03.13.045.2a17.025,17.025,0,0,0,3.132,6.671c.161.231.321.462.477.7l1.929,1.929c.076.04.156.076.233.114a17.02,17.02,0,0,0,9.581,3.876l.261.02q.169.01.339.018c.189.008.379.013.569.014.053,0,.106,0,.159,0h.077l.207,0a17.261,17.261,0,0,0,2.536-.23l-.059-.027c.042-.008.084-.013.127-.022l-4.063-1.873,2.151-3.13h-.083l.056-.082.055-.012c-.332.028-.666.046-1.006.046A11.759,11.759,0,0,1,309.407,44.2l-3.09-4.361a17.078,17.078,0,0,0-6.645,12.255" transform="translate(-150.184 -19.968)" fill="#e35700"/>
    <path id="Path_29275" data-name="Path 29275" d="M326.261,62.187l-1.215-1.715-3.587-5.062a7.614,7.614,0,1,0,9.2-.289L327.371,60.4Z" transform="translate(-159.72 -27.63)" fill="#FFF"/>
    <path id="Path_29276" data-name="Path 29276" d="M314.542,22.734l9.406,4.094L341.569,8.08,324.076,36.189Z" transform="translate(-157.665 -4.05)" fill="#ffb900"/>
  </g>
</svg>
